<svg width="200" height="200" viewBox="0 0 200 200" fill="none" xmlns="http://www.w3.org/2000/svg">
  <circle cx="100" cy="100" r="90" fill="#4B9CD3"/>

  <path d="M 120 70 C 135 60, 150 75, 150 90 C 150 105, 140 120, 125 125 C 110 130, 90 125, 80 110 C 70 95, 85 80, 100 80 C 115 80, 120 70, 120 70 Z" fill="#E8F4F8"/>
  
  <path d="M 125 125 C 130 135, 135 140, 140 135 C 145 130, 140 120, 125 125 Z" fill="#E8F4F8"/>
  <path d="M 125 125 C 120 135, 115 140, 110 135 C 105 130, 110 120, 125 125 Z" fill="#E8F4F8"/>
  
  <path d="M 110 85 C 115 75, 125 75, 120 85 C 115 95, 105 95, 110 85 Z" fill="#E8F4F8"/>

  <circle cx="125" cy="80" r="3" fill="#222222"/>

  <path d="M 70 75 C 60 70, 50 70, 45 80 C 40 90, 50 95, 60 90 L 60 85 L 70 80 Z" fill="#FFFFFF" opacity="0.8"/>

</svg>