<svg t="1691043770031" class="icon" viewBox="0 0 1024 1024" version="1.1" xmlns="http://www.w3.org/2000/svg" p-id="3554"
     width="200" height="200">
    <path d="M23.151304 12.243478L11.353043 0.222609h375.362783V375.986087L23.151304 12.243478z m301.056 301.078261V62.886957H73.772522l250.434782 250.434782z m-67.294608-62.530782L136.281043 127.710609v-2.181566h125.284174v125.261914h-4.674782zM1012.869565 375.986087H637.150609V0.222609H1012.869565v375.718956z m-313.076869-62.642087h250.434782V62.886957h-250.434782v250.434782z m139.865043 532.123826h47.927652V782.914783h62.642087v156.560695H1012.869565v62.508522h-19.812174l-153.377391-156.538435zM574.642087 574.998261l-125.284174-127.844174V156.783304h93.896348V31.610435h62.642087v187.814956H512v93.896348h62.642087v62.642087H512v93.896348h219.180522v125.150609h-62.642087V532.48h-93.896348v42.518261z m80.985043 82.632348h169.44974v-187.792696h62.508521v-62.642087h62.642087v62.642087H1012.869565v62.619826h-125.284174v125.17287H1012.869565v62.642087H717.000348l-61.373218-62.642087zM762.434783 125.529043h125.284174v125.261914H762.434783V125.551304z"
          fill="#1896FF" p-id="3555"></path>
</svg>